<?xml version="1.0" encoding="UTF-8"?>
<svg id="uuid-e5f13361-3608-4b34-8bfa-b48e1fffef0d" data-name="Calque 1" xmlns="http://www.w3.org/2000/svg" xmlns:xlink="http://www.w3.org/1999/xlink" viewBox="0 0 593.33 213.58">
  <defs>
    <style>
      .uuid-2ae7c5c0-59ec-41ae-8b3c-4794c29e6fda {
        fill: none;
      }

      .uuid-8178453f-1765-4af3-89fb-57c837a349cb {
        fill: #01ae99;
      }

      .uuid-fe449837-7579-4fce-9c08-892813e97bbe {
        clip-path: url(#uuid-74e7f415-896c-4a8a-ba18-c205e1b09baf);
      }

      .uuid-cbc74f41-3661-47b3-8aef-e24eb2a2eee0 {
        fill: #fd0;
      }

      .uuid-aa062126-b302-4f25-b81e-ba79a5030490 {
        fill: #b2b2b2;
      }
    </style>
    <clipPath id="uuid-74e7f415-896c-4a8a-ba18-c205e1b09baf">
      <rect class="uuid-2ae7c5c0-59ec-41ae-8b3c-4794c29e6fda" x="32.91" y="36.01" width="126.83" height="147.04"/>
    </clipPath>
  </defs>
  <g>
    <path class="uuid-8178453f-1765-4af3-89fb-57c837a349cb" d="M211.79,40.56h-20.04v-5.01h45.81v5.01h-20.04v53.83h-5.74v-53.83Z"/>
    <path class="uuid-8178453f-1765-4af3-89fb-57c837a349cb" d="M256.87,35.55h22.77c14.48,0,19.67,7.83,19.67,16.94,0,8.47-4.55,14.3-12.11,16.58l12.93,25.14v.18h-6.28l-12.48-24.5h-18.76v24.5h-5.74v-58.84ZM262.61,40.56v24.32h16.76c9.2,0,14.12-4.46,14.12-12.2,0-6.83-3.55-12.11-14.21-12.11h-16.67Z"/>
    <path class="uuid-8178453f-1765-4af3-89fb-57c837a349cb" d="M368.35,94.39h-6.37l-6.1-16.3h-27.51l-6.1,16.3h-6.1l22.22-58.84h7.74l22.22,58.84ZM330.19,73.08h23.86l-11.84-31.6h-.18l-11.84,31.6Z"/>
    <path class="uuid-8178453f-1765-4af3-89fb-57c837a349cb" d="M377.64,35.55h6.37l19.13,52.92h.18l18.58-52.92h6.1l-21.31,58.84h-7.74l-21.31-58.84Z"/>
    <path class="uuid-8178453f-1765-4af3-89fb-57c837a349cb" d="M484.11,35.55v5.01h-31.7v20.95h29.33v5.01h-29.33v22.86h31.7v5.01h-37.43v-58.84h37.43Z"/>
    <path class="uuid-8178453f-1765-4af3-89fb-57c837a349cb" d="M507.52,35.55h5.74v53.83h30.78v5.01h-36.52v-58.84Z"/>
    <path class="uuid-8178453f-1765-4af3-89fb-57c837a349cb" d="M216.52,124.32c18.31,0,27.23,11.57,27.23,29.33s-9.02,29.51-27.5,29.51h-18.49v-58.84h18.76ZM203.5,129.33v48.82h12.66c15.12,0,21.68-9.56,21.68-24.5s-7.01-24.32-21.68-24.32h-12.66Z"/>
    <path class="uuid-8178453f-1765-4af3-89fb-57c837a349cb" d="M261.79,153.74c0-19.4,9.47-30.69,25.68-30.69s25.5,10.93,25.5,30.69-9.47,30.69-25.68,30.69-25.5-10.84-25.5-30.69ZM307.05,153.74c0-16.39-7.01-25.5-19.67-25.5s-19.67,9.02-19.67,25.5,6.92,25.5,19.67,25.5,19.67-8.93,19.67-25.5Z"/>
    <path class="uuid-8178453f-1765-4af3-89fb-57c837a349cb" d="M331.01,153.92c0-17.94,10.02-30.33,27.87-30.33,5.55,0,9.93,1.09,12.75,2.55v5.74h-.18c-3.01-1.73-7.01-3.1-12.57-3.1-14.57,0-21.95,10.02-21.95,24.96s7.47,24.95,21.95,24.95c6.01,0,9.56-1.55,12.57-3.1h.18v5.65c-2.91,1.46-7.01,2.64-12.75,2.64-18.13,0-27.87-11.38-27.87-29.96Z"/>
    <path class="uuid-8178453f-1765-4af3-89fb-57c837a349cb" d="M409.06,129.33h-20.04v-5.01h45.81v5.01h-20.04v53.83h-5.74v-53.83Z"/>
    <path class="uuid-8178453f-1765-4af3-89fb-57c837a349cb" d="M449.13,153.74c0-19.4,9.47-30.69,25.68-30.69s25.5,10.93,25.5,30.69-9.47,30.69-25.69,30.69-25.5-10.84-25.5-30.69ZM494.4,153.74c0-16.39-7.01-25.5-19.67-25.5s-19.67,9.02-19.67,25.5,6.92,25.5,19.67,25.5,19.67-8.93,19.67-25.5Z"/>
    <path class="uuid-8178453f-1765-4af3-89fb-57c837a349cb" d="M522,124.32h22.77c14.48,0,19.67,7.83,19.67,16.94,0,8.47-4.55,14.3-12.11,16.58l12.93,25.14v.18h-6.28l-12.48-24.5h-18.76v24.5h-5.74v-58.84ZM527.74,129.33v24.32h16.76c9.2,0,14.12-4.46,14.12-12.2,0-6.83-3.55-12.11-14.21-12.11h-16.67Z"/>
  </g>
  <g class="uuid-fe449837-7579-4fce-9c08-892813e97bbe">
    <path class="uuid-8178453f-1765-4af3-89fb-57c837a349cb" d="M103.87,160.96c8.27-.18,16.61-1.81,24.66-5.05l-1.49-3.7c-26.86,10.81-57.18,2.96-75.45-19.54-11.06-13.61-16.15-30.71-14.35-48.15,1.74-16.79,9.68-31.97,22.41-42.94l11.18,13.18,3.04-2.58-13.72-16.17-1.51,1.23c-14.44,11.73-23.45,28.37-25.36,46.88-1.91,18.5,3.49,36.64,15.22,51.08,13.02,16.03,31.81,25.02,51.38,25.74v18.13h-18.44v3.98h41.38v-3.98h-18.96v-18.1Z"/>
    <path class="uuid-aa062126-b302-4f25-b81e-ba79a5030490" d="M118.48,111.92l-.77.62,11.06,13.83c.48.6.69,1.38.57,2.15-.12.74-.52,1.36-1.12,1.76-15.93,10.41-35.98,9.8-51.05-.15-.45-.3-.89-.6-1.33-.91-.22-.16-.44-.31-.66-.48-.38-.28-.75-.56-1.11-.84-.27-.21-.53-.42-.8-.64-.29-.24-.58-.49-.86-.73-.32-.27-.64-.55-.95-.84-.21-.19-.42-.4-.63-.59-.36-.34-.72-.68-1.07-1.04l-.47-.48c-.38-.4-.75-.79-1.12-1.2l-.4-.46c-.36-.41-.71-.83-1.06-1.26-.16-.2-.32-.4-.48-.61-.29-.37-.58-.74-.85-1.11l-.41-.58c-.73-1.02-1.41-2.06-2.05-3.11-.13-.23-.27-.46-.4-.69-.61-1.05-1.18-2.12-1.69-3.21l-.21-.46c-7.1-15.46-5.14-34.05,5.07-47.66l.05-.07c.83-1.11,1.73-2.18,2.66-3.22l.13-.13c.95-1.04,1.95-2.04,3.02-3.01,2.35-2.12,4.86-3.97,7.5-5.54l.45-.27c.43-.25.86-.49,1.29-.72.38-.2.75-.4,1.14-.59l.59-.29c3.32-1.6,6.86-2.82,10.55-3.61,1.52-.33,3.04-.58,4.56-.75h.03c.66-.08,1.31-.13,1.97-.18.5-.03,1.01-.06,1.51-.08l.53-.02c1.55-.04,3.12,0,4.7.13,3.34.26,6.59.87,9.71,1.78,4.2,1.26,8.24,3.11,12.02,5.56,2.23,1.44,4.29,3.05,6.2,4.79h0c.83.78,1.62,1.58,2.39,2.39l.49.53c8.48,9.29,12.82,21.66,12.05,34.2l3.94.67c.89-12.8-3.14-25.46-11.19-35.37h.02c-.6-.75-1.23-1.47-1.86-2.17-.18-.2-.38-.4-.57-.6-.82-.88-1.67-1.73-2.54-2.54l-.06-.05c-5.78-5.34-12.64-9.21-20.17-11.36-4.93-1.43-10.05-2.08-15.22-1.95-.21,0-.42.02-.62.03-.54.02-1.08.04-1.62.08-.66.04-1.31.11-1.96.18l-.25.03c-4.98.55-9.81,1.83-14.38,3.81l-.06.03c-.62.27-1.24.55-1.85.85-.26.12-.51.25-.77.38-.38.19-.76.39-1.14.59-.49.26-.98.53-1.46.81l-.45.27c-3.58,2.12-6.89,4.68-9.85,7.63l-.05.05c-.49.49-.97.99-1.43,1.5l-.28.3c-.43.48-.85.97-1.27,1.46l-.27.32c-.45.55-.89,1.11-1.32,1.68l-.04.05c-.74.98-1.45,1.98-2.12,3.01-9.36,14.46-10.37,31.95-4.25,46.78l.09.22c.16.39.34.78.51,1.16.18.4.35.8.54,1.19l.27.54c.28.57.57,1.13.87,1.69l.16.29c.34.61.68,1.21,1.04,1.81l.22.35c.34.55.68,1.09,1.04,1.63.15.22.3.44.45.65.2.29.39.58.59.86l.22.29c1.14,1.55,2.37,3.04,3.7,4.46l.17.18c.59.62,1.19,1.23,1.81,1.83l.55.52c.49.46.99.91,1.5,1.35.26.22.51.44.76.65.44.36.9.72,1.36,1.07.31.24.62.48.94.71.41.3.83.58,1.25.87.36.25.72.5,1.08.74l.04.03h0c8.25,5.35,17.84,8.14,27.53,8.14s19.04-2.67,27.53-8.22c1.54-1,2.59-2.63,2.88-4.47.3-1.87-.21-3.79-1.39-5.27l-11.06-13.83-1.3,1.04"/>
    <path class="uuid-cbc74f41-3661-47b3-8aef-e24eb2a2eee0" d="M120.09,111.81c9.44-8.11,10.63-22.57,2.52-32.54l-11.58-14.26c-1.38-1.7-3.33-2.78-5.48-3.03-2.17-.27-4.3.35-5.98,1.72l-4.95,4.02,2.51,3.09,4.95-4.01c.84-.68,1.9-.99,3-.86,1.12.13,2.13.7,2.86,1.59l11.58,14.26c6.82,8.4,5.77,20.6-2.31,27.26-3.94,3.14-8.89,4.55-13.97,3.94-5.17-.6-9.84-3.19-13.17-7.29l-11.58-14.26c-.72-.89-1.06-2-.97-3.12.1-1.1.62-2.08,1.46-2.76l4.94-4.02-2.51-3.1-4.94,4.02c-1.68,1.37-2.71,3.32-2.91,5.5-.19,2.16.46,4.29,1.84,5.98l11.59,14.26c3.98,4.91,9.59,8.01,15.79,8.73.93.11,1.85.17,2.77.17,4.9,0,9.58-1.56,13.51-4.47l1.04-.83Z"/>
    <path class="uuid-cbc74f41-3661-47b3-8aef-e24eb2a2eee0" d="M149.55,114.57c-5.62,0-10.19-4.57-10.19-10.19s4.57-10.18,10.19-10.18,10.19,4.57,10.19,10.18-4.57,10.19-10.19,10.19ZM149.55,98.11c-3.46,0-6.28,2.81-6.28,6.28s2.82,6.28,6.28,6.28,6.28-2.82,6.28-6.28-2.82-6.28-6.28-6.28Z"/>
  </g>
</svg>