<?xml version="1.0" encoding="UTF-8"?>
<svg id="uuid-02b92bba-08ce-440c-8a8c-178d113b3c49" data-name="Calque 1" xmlns="http://www.w3.org/2000/svg" xmlns:xlink="http://www.w3.org/1999/xlink" viewBox="0 0 198.43 198.43">
  <defs>
    <style>
      .uuid-458ba52c-ce2c-48d0-8c34-ebec0e2521ea {
        fill: none;
      }

      .uuid-724eaf52-d7db-4771-9da5-9a216387f222 {
        fill: #01ae99;
      }

      .uuid-e9becc7a-bd06-419a-bcff-eb09db9ddf50 {
        clip-path: url(#uuid-1f4a292a-c064-4a9d-bf7d-f9072359020d);
      }

      .uuid-e89b593e-b5f1-4e9f-910e-8e8e58c49145 {
        fill: #fd0;
      }

      .uuid-d50108cd-6cac-4323-a890-f745307b6165 {
        fill: #b2b2b2;
      }
    </style>
    <clipPath id="uuid-1f4a292a-c064-4a9d-bf7d-f9072359020d">
      <rect class="uuid-458ba52c-ce2c-48d0-8c34-ebec0e2521ea" x="42.44" y="35.99" width="115.96" height="134.43"/>
    </clipPath>
  </defs>
  <g class="uuid-e9becc7a-bd06-419a-bcff-eb09db9ddf50">
    <path class="uuid-724eaf52-d7db-4771-9da5-9a216387f222" d="M107.32,150.24c7.56-.16,15.19-1.66,22.55-4.62l-1.36-3.38c-24.55,9.88-52.28,2.7-68.98-17.86-10.11-12.44-14.77-28.08-13.12-44.03,1.59-15.35,8.85-29.23,20.49-39.26l10.22,12.05,2.78-2.36-12.54-14.79-1.38,1.13c-13.2,10.72-21.44,25.94-23.19,42.86-1.75,16.91,3.19,33.5,13.92,46.7,11.9,14.65,29.08,22.88,46.97,23.53v16.58h-16.86v3.64h37.83v-3.64h-17.33v-16.54Z"/>
    <path class="uuid-d50108cd-6cac-4323-a890-f745307b6165" d="M120.68,105.39l-.7.56,10.11,12.65c.44.55.63,1.27.52,1.97-.11.67-.47,1.24-1.03,1.61-14.57,9.52-32.89,8.96-46.67-.14-.41-.27-.82-.55-1.22-.83-.2-.14-.4-.29-.6-.44-.35-.25-.68-.51-1.01-.77-.25-.19-.49-.39-.73-.58-.27-.22-.53-.44-.79-.67-.29-.25-.58-.51-.87-.76-.19-.18-.39-.36-.58-.54-.33-.31-.66-.62-.98-.95l-.43-.44c-.35-.36-.69-.72-1.02-1.1l-.37-.42c-.33-.38-.65-.76-.97-1.15-.15-.18-.29-.37-.44-.55-.26-.34-.53-.67-.78-1.02l-.37-.53c-.67-.93-1.29-1.88-1.87-2.85-.12-.21-.24-.42-.36-.63-.55-.96-1.08-1.94-1.55-2.93l-.19-.42c-6.49-14.13-4.7-31.13,4.63-43.58l.05-.06c.76-1.01,1.58-2,2.44-2.94l.12-.12c.87-.95,1.79-1.87,2.76-2.75,2.14-1.93,4.44-3.63,6.85-5.07l.41-.24c.39-.23.78-.44,1.18-.66.35-.18.69-.37,1.04-.54l.54-.27c3.04-1.46,6.27-2.58,9.65-3.3,1.39-.3,2.78-.53,4.17-.68h.03c.6-.07,1.2-.12,1.8-.16.46-.03.92-.05,1.38-.07l.48-.02c1.42-.03,2.85,0,4.3.12,3.05.24,6.02.79,8.88,1.63,3.84,1.15,7.54,2.85,10.99,5.08,2.04,1.32,3.93,2.78,5.67,4.38h0c.76.71,1.48,1.44,2.19,2.19l.45.48c7.75,8.5,11.72,19.81,11.02,31.27l3.6.62c.82-11.7-2.87-23.28-10.23-32.34h.02c-.55-.69-1.12-1.35-1.7-1.99-.17-.18-.35-.37-.52-.55-.75-.81-1.53-1.58-2.32-2.32l-.05-.05c-5.28-4.88-11.56-8.42-18.44-10.38-4.51-1.31-9.19-1.9-13.92-1.78-.19,0-.38.02-.57.02-.49.02-.99.04-1.48.07-.6.04-1.2.1-1.79.16l-.23.02c-4.55.5-8.97,1.68-13.14,3.49l-.06.02c-.57.25-1.13.51-1.69.78-.23.11-.47.23-.7.35-.35.18-.69.35-1.04.54-.45.24-.9.49-1.33.74l-.41.24c-3.27,1.93-6.3,4.28-9,6.97l-.05.05c-.44.45-.88.9-1.31,1.37l-.25.27c-.39.44-.78.89-1.16,1.34l-.25.3c-.41.5-.81,1.01-1.21,1.53l-.04.05c-.67.9-1.33,1.81-1.94,2.75-8.56,13.22-9.48,29.21-3.89,42.77l.08.2c.15.36.31.71.47,1.06.16.37.32.73.49,1.09l.25.5c.25.52.52,1.04.79,1.54l.15.27c.31.56.62,1.11.95,1.66l.2.32c.31.5.62,1,.95,1.49.14.2.28.4.41.6.18.26.36.53.54.78l.21.27c1.04,1.41,2.17,2.78,3.38,4.08l.16.16c.54.57,1.09,1.13,1.66,1.67l.51.47c.45.42.91.83,1.38,1.23.23.2.46.4.7.59.41.33.82.66,1.24.98.29.22.57.44.86.65.37.27.76.53,1.14.8.33.23.66.46.99.68l.04.03h0c7.55,4.89,16.31,7.44,25.17,7.44s17.41-2.44,25.17-7.52c1.4-.92,2.37-2.41,2.63-4.08.27-1.71-.19-3.47-1.27-4.82l-10.11-12.64-1.19.95"/>
    <path class="uuid-e89b593e-b5f1-4e9f-910e-8e8e58c49145" d="M122.15,105.3c8.63-7.42,9.72-20.63,2.31-29.75l-10.59-13.04c-1.27-1.55-3.04-2.54-5.01-2.77-1.98-.24-3.93.32-5.47,1.57l-4.52,3.67,2.3,2.83,4.52-3.67c.77-.62,1.74-.91,2.74-.78,1.02.12,1.95.64,2.61,1.45l10.59,13.04c6.24,7.68,5.28,18.83-2.11,24.93-3.6,2.87-8.13,4.16-12.77,3.61-4.72-.55-8.99-2.92-12.04-6.66l-10.59-13.04c-.66-.81-.97-1.83-.89-2.85.09-1.01.56-1.9,1.33-2.52l4.52-3.67-2.3-2.83-4.52,3.67c-1.54,1.25-2.48,3.04-2.66,5.03-.18,1.98.42,3.92,1.68,5.47l10.59,13.04c3.64,4.49,8.77,7.32,14.44,7.98.85.1,1.69.15,2.53.15,4.48,0,8.76-1.43,12.35-4.09l.95-.76Z"/>
    <path class="uuid-e89b593e-b5f1-4e9f-910e-8e8e58c49145" d="M149.09,107.82c-5.14,0-9.32-4.18-9.32-9.32s4.18-9.31,9.32-9.31,9.32,4.18,9.32,9.31-4.18,9.32-9.32,9.32ZM149.09,92.77c-3.17,0-5.74,2.57-5.74,5.74s2.58,5.74,5.74,5.74,5.74-2.58,5.74-5.74-2.58-5.74-5.74-5.74Z"/>
  </g>
</svg>